With: Michael Beck, James Remar and Deborah Van Valkenburgh

Cyrus, de charismatische leider van de straatbende Gramarcy Riffs, wil de volledige controle over New York. Hij heeft daarvoor de hulp nodig van de andere bendes. Wanneer ze zich verenigen, zijn ze drie keer zo talrijk dan de politie en kunnen ze over de stad regeren. Cyrus maakt zijn plan bekend tijdens een nachtelijke vergadering in de Bronx, waar elke bende negen ongewapende vertegenwoordigers naartoe gestuurd heeft. Iedereen is enthousiast en bereid de krachten te bundelen. Maar dan wordt Cyrus neergeschoten door Luther, de aanvoerder van de Rogues. Hij beweert echter dat de moord door een van de Warriors gepleegd werd. Meteen wordt het bestand opgeheven en de Warriors vogelvrij verklaard.

In a future, dystopian New York City, turf gangs and cops rule the streets. When one gang leader tries to bring all gangs together against the cops Coney Island's The Warriors are framed for his murder and the entire city turns on them. 
 
http://www.imdb.com/title/tt0080120	

------------------------ Dutch Friends ------------------------
---------------------------------------------------------------
- Bezoek ook eens mijn vrienden op:  http://www.Film-Test.nl --
----- voor mijn Nederlandse Sync. ondertitels ---- en meer ----
------- http://www.Film-Test.nl ---- Over Films en meer -------
---------------------------------------------------------------

General:

Complete name                    : The WarriorsThe Warriors.avi
Format                           : AVI
Format/Info                      : Audio Video Interleave
File size                        : 1.18 GiB
Duration                         : 1h 29mn
Overall bit rate                 : 1 884 Kbps

Video:

Format                           : MPEG-4 Visual
Format profile                   : Simple@L3
Format settings, BVOP            : No
Format settings, QPel            : No
Format settings, GMC             : No warppoints
Format settings, Matrix          : Default (H.263)
Codec ID                         : XVID
Codec ID/Hint                    : XviD
Duration                         : 1h 29mn
Bit rate                         : 1 681 Kbps
Width                            : 704 pixels
Height                           : 396 pixels
Display aspect ratio             : 16:9
Frame rate                       : 25.000 fps
Color space                      : YUV
Chroma subsampling               : 4:2:0
Bit depth                        : 8 bits
Scan type                        : Progressive
Compression mode                 : Lossy
Bits/(Pixel*Frame)               : 0.241
Stream size                      : 1.05 GiB (89%)
Writing library                  : XviD 1.1.2 (UTC 2006-11-01)

Audio:

Format                           : AC-3
Format/Info                      : Audio Coding 3
Mode extension                   : CM (complete main)
Codec ID                         : 2000
Duration                         : 1h 29mn
Bit rate mode                    : Constant
Bit rate                         : 192 Kbps
Channel(s)                       : 2 channels
Channel positions                : Front: L R
Sampling rate                    : 48.0 KHz
Bit depth                        : 16 bits
Compression mode                 : Lossy
Stream size                      : 123 MiB (10%)
Alignment                        : Aligned on interleaves
Interleave, duration             : 32 ms (0.80 video frame)
Interleave, preload duration     : 288 ms